<svg width="1207" height="258" viewBox="0 0 1207 258" fill="none" xmlns="http://www.w3.org/2000/svg">
<path d="M142.9 119.713H141.702C138.848 113.701 139.085 82.2965 144.047 72.8151C148.008 72.4506 152.072 72.2417 156.24 72.138V51.5559C156.24 51.5559 144.88 51.2432 129.559 54.1607C126.433 44.6246 117.47 37.7466 106.893 37.7466H60.8284C59.6297 60.4768 76.0035 67.3101 96.0021 65.417C75.1261 73.1724 41.7605 115.62 43.8409 119.87C-7.03372 124.718 -3.49388 202.045 47.9081 201.993C91.3212 202.674 104.449 141.003 65.4661 123.57C70.0519 107.068 96.0468 84.2083 120.284 77.715C118.214 84.2904 117.9 121.699 120.388 126.332C86.5726 147.227 102.438 202.788 142.849 201.993C196.57 201.751 196.832 119.958 142.899 119.713H142.9Z" fill="#F1F0FA"/>
<path d="M205.903 160.274C201.786 150.738 193.396 141.475 181.414 136.682C176.785 131.209 173.097 127.499 165.452 123.377C164.514 114.518 166.405 100.347 169.063 92.7918C186.831 91.5384 181.087 95.9268 182.038 69.239C182.062 67.9438 181.101 67.1629 180.162 66.529C172.52 60.7964 164.877 55.0652 157.234 49.3326C156.32 48.7275 155.5 47.7276 154.316 47.7175C150.594 47.6498 140.231 48.6007 130.528 49.8815C121.666 26.9885 80.1316 36.6888 57.4964 34.8476C56.1004 34.7064 54.6654 35.7293 54.579 37.1931C52.4179 54.0279 64.6424 63.2629 77.5584 70.9073C68.9314 76.0089 44.2101 102.043 37.8522 117.128C10.8489 119.655 -5.93839 151.145 3.04449 175.751C8.00056 192.046 33.1324 207.34 46.5282 215.903C68.5626 229.948 102.842 219.412 111.796 194.561C131.473 206.766 142.564 220.671 165.05 222.181C197.003 224.025 218.641 188.345 205.905 160.275L205.903 160.274ZM94.5993 141.514C93.7925 140.952 92.9395 140.433 92.0982 139.847C94.5992 134.479 100.8 123.224 112.577 114.158C112.889 119.213 113.411 122.704 113.88 124.892C107.002 129.791 101.688 136.617 98.5598 144.381C97.3092 143.39 96.0068 142.4 94.5993 141.514ZM142.849 201.993C102.431 202.783 86.5788 147.219 120.39 126.33C117.9 121.634 118.216 84.3492 120.286 77.7133C96.0544 84.1706 69.9673 107.193 65.4679 123.568C104.448 141.008 91.3245 202.677 47.9056 201.991C-3.49349 202.037 -7.03045 124.708 43.8427 119.869C41.7523 115.626 75.1424 73.1577 96.004 65.4153C75.9881 67.3127 59.6287 60.4549 60.8303 37.7449H106.894C117.472 37.7449 126.435 44.6229 129.561 54.159C144.882 51.2415 156.242 51.5541 156.242 51.5541V72.1377C152.072 72.2414 148.008 72.4503 144.049 72.8148C139.086 82.2558 138.858 113.793 141.704 119.713C196.704 119.225 197.602 200.947 142.85 201.993H142.849Z" fill="#5443B7"/>
<path d="M1061.92 225.548H1087.1C1098.75 225.548 1104.58 219.38 1104.58 207.044V199.334L1043.67 61.0679H1088.13L1110.49 113.496C1114.26 121.891 1116.83 129.516 1118.2 136.369C1119.57 143.222 1120.26 151.446 1120.26 161.041V167.466H1159.06L1144.93 199.591V206.53C1144.93 224.691 1140.39 237.713 1131.31 245.594C1122.4 253.475 1110.75 257.416 1096.36 257.416H1061.92V225.548ZM1129.77 158.728C1129.94 149.99 1130.71 142.366 1132.08 135.855C1133.45 129.344 1135.85 121.891 1139.27 113.496L1161.63 61.0679H1206.09L1162.92 158.728H1129.77Z" fill="#09090B"/>
<path d="M920.97 134.57H963.632C962.261 141.424 961.576 148.448 961.576 155.644V200.876H920.97V134.57ZM920.97 60.8112H961.576V109.384H969.029C969.714 92.4222 974.511 79.8292 983.421 71.6052C992.33 63.2099 1004.32 59.0122 1019.4 59.0122H1036.36V94.7352H1017.09C990.531 94.7352 973.569 105.015 966.202 125.575H920.97V60.8112Z" fill="#09090B"/>
<path d="M789.207 134.57H831.869C830.498 141.424 829.813 148.448 829.813 155.644V200.876H789.207V134.57ZM789.207 60.8112H829.813V109.384H837.266C837.951 92.4222 842.749 79.8292 851.658 71.6052C860.567 63.2099 872.561 59.0122 887.638 59.0122H904.6V94.7352H885.325C858.768 94.7352 841.806 105.015 834.439 125.575H789.207V60.8112Z" fill="#09090B"/>
<path d="M615.345 130.715C615.345 116.323 618.343 103.644 624.34 92.6789C630.336 81.5422 638.817 72.8899 649.783 66.7219C660.919 60.3826 674.026 56.9559 689.104 56.4419V87.2819C677.967 88.1386 669.229 92.5076 662.89 100.389C656.55 108.099 653.381 118.208 653.381 130.715C653.381 143.565 656.55 154.016 662.89 162.069C669.4 169.95 678.138 174.319 689.104 175.176V204.988C674.026 204.474 660.919 201.133 649.783 194.965C638.817 188.797 630.336 180.23 624.34 169.265C618.343 158.3 615.345 145.45 615.345 130.715ZM662.376 114.267H731.509C730.138 106.386 726.54 100.132 720.715 95.5059C714.889 90.7086 707.436 87.9672 698.356 87.2819V56.4419C720.8 57.2986 738.362 64.2376 751.041 77.2589C763.719 90.2802 770.059 107.671 770.059 129.43C770.059 131.657 769.887 135.17 769.545 139.967L662.376 139.71V114.267ZM698.356 175.176C707.779 174.319 715.575 170.978 721.743 165.153C727.911 159.328 731.937 151.532 733.822 141.766L763.891 164.896C758.237 177.061 749.756 186.655 738.448 193.68C727.14 200.533 713.776 204.303 698.356 204.988V175.176Z" fill="#09090B"/>
<path d="M455.659 97.562H503.718C504.404 84.712 509.03 74.8603 517.596 68.007C526.163 60.9823 536.786 57.47 549.464 57.47C564.028 57.47 575.421 61.9247 583.645 70.834C591.869 79.572 595.981 92.0794 595.981 108.356V126.346H555.375V116.323C555.375 107.414 553.062 100.646 548.436 96.02C543.81 91.2227 537.814 88.824 530.446 88.824C519.995 88.824 511.685 93.45 505.517 102.702C499.349 111.954 496.265 125.061 496.265 142.023V200.876H455.659V97.562ZM455.659 0.416016H496.265V88.567H455.659V0.416016ZM555.375 135.084H595.981V200.876H555.375V135.084Z" fill="#09090B"/>
<path d="M361.388 204.731C342.027 204.731 325.836 201.561 312.815 195.222C299.965 188.711 290.456 179.716 284.288 168.237L316.413 146.135C318.812 155.73 324.209 163.097 332.604 168.237C340.999 173.206 351.022 175.69 362.673 175.69C371.411 175.69 378.693 174.491 384.518 172.092C390.343 169.693 394.113 166.524 395.826 162.583H434.633C432.234 175.604 424.182 185.884 410.475 193.423C396.94 200.962 380.577 204.731 361.388 204.731ZM329.52 105.015C331.062 108.099 334.232 110.069 339.029 110.926C343.998 111.611 352.136 112.125 363.444 112.468C375.437 112.811 386.231 113.753 395.826 115.295C405.592 116.837 414.501 120.606 422.554 126.603C430.778 132.6 435.061 141.595 435.404 153.588H395.826C394.113 149.476 390.429 146.906 384.775 145.878C379.121 144.679 370.212 143.822 358.047 143.308C345.711 142.965 335.088 142.109 326.179 140.738C317.441 139.196 309.388 135.684 302.021 130.201C294.825 124.718 291.141 116.323 290.97 105.015H329.52ZM291.741 95.7629C294.14 83.2556 301.678 73.5752 314.357 66.7219C327.207 59.8686 342.199 56.4419 359.332 56.4419C376.979 56.4419 392.228 59.4402 405.078 65.4369C418.099 71.4336 427.266 79.3149 432.577 89.0809L398.396 107.585C396.169 100.732 391.457 95.4202 384.261 91.6509C377.065 87.7102 368.498 85.7399 358.561 85.7399C350.68 85.7399 344.255 86.6822 339.286 88.5669C334.489 90.2802 331.319 92.6789 329.777 95.7629H291.741Z" fill="#09090B"/>
</svg>
