<svg width="1206" height="258" viewBox="0 0 1206 258" fill="none" xmlns="http://www.w3.org/2000/svg">
<path d="M142.475 119.713H141.276C138.422 113.701 138.66 82.2965 143.621 72.8151C147.582 72.4506 151.646 72.2417 155.814 72.138V51.5559C155.814 51.5559 144.454 51.2432 129.134 54.1607C126.007 44.6246 117.044 37.7466 106.467 37.7466H60.4026C59.204 60.4768 75.5777 67.3101 95.5763 65.417C74.7003 73.1724 41.3347 115.62 43.4151 119.87C-7.4595 124.718 -3.91966 202.045 47.4823 201.993C90.8954 202.674 104.023 141.003 65.0403 123.57C69.6261 107.068 95.621 84.2083 119.858 77.715C117.788 84.2904 117.474 121.699 119.962 126.332C86.1468 147.227 102.012 202.788 142.423 201.993C196.144 201.751 196.406 119.958 142.473 119.713H142.475Z" fill="#F1F0FA"/>
<path d="M205.478 160.274C201.36 150.738 192.971 141.475 180.988 136.682C176.359 131.209 172.671 127.499 165.027 123.377C164.089 114.518 165.979 100.347 168.637 92.7918C186.405 91.5384 180.661 95.9268 181.612 69.239C181.637 67.9438 180.676 67.1629 179.736 66.529C172.095 60.7964 164.452 55.0652 156.809 49.3326C155.894 48.7275 155.074 47.7276 153.89 47.7175C150.168 47.6498 139.805 48.6007 130.102 49.8815C121.24 26.9885 79.7058 36.6888 57.0706 34.8476C55.6746 34.7064 54.2396 35.7293 54.1532 37.1931C51.9921 54.0279 64.2166 63.2629 77.1327 70.9073C68.5056 76.0089 43.7843 102.043 37.4265 117.128C10.4231 119.655 -6.36417 151.145 2.61871 175.751C7.57478 192.046 32.7067 207.34 46.1025 215.903C68.1368 229.948 102.416 219.412 111.37 194.561C131.047 206.766 142.138 220.671 164.625 222.181C196.577 224.025 218.215 188.345 205.479 160.275L205.478 160.274ZM94.1735 141.514C93.3667 140.952 92.5138 140.433 91.6724 139.847C94.1735 134.479 100.374 123.224 112.151 114.158C112.463 119.213 112.985 122.704 113.455 124.892C106.577 129.791 101.262 136.617 98.134 144.381C96.8835 143.39 95.5811 142.4 94.1735 141.514ZM142.423 201.993C102.005 202.783 86.153 147.219 119.964 126.33C117.474 121.634 117.79 84.3492 119.86 77.7133C95.6286 84.1706 69.5415 107.193 65.0421 123.568C104.022 141.008 90.8987 202.677 47.4798 201.991C-3.91928 202.037 -7.45623 124.708 43.417 119.869C41.3265 115.626 74.7166 73.1577 95.5782 65.4153C75.5623 67.3127 59.2029 60.4549 60.4045 37.7449H106.469C117.046 37.7449 126.009 44.6229 129.135 54.159C144.456 51.2415 155.816 51.5541 155.816 51.5541V72.1377C151.647 72.2414 147.582 72.4503 143.623 72.8148C138.66 82.2558 138.432 113.793 141.278 119.713C196.279 119.225 197.176 200.947 142.425 201.993H142.423Z" fill="#5443B7"/>
<path d="M1061.49 225.548H1086.68C1098.33 225.548 1104.15 219.38 1104.15 207.044V199.334L1043.25 61.0679H1087.71L1110.07 113.496C1113.83 121.891 1116.4 129.516 1117.78 136.369C1119.15 143.222 1119.83 151.446 1119.83 161.041V167.466H1158.64L1144.5 199.591V206.53C1144.5 224.691 1139.96 237.713 1130.88 245.594C1121.97 253.475 1110.32 257.416 1095.93 257.416H1061.49V225.548ZM1129.34 158.728C1129.51 149.99 1130.28 142.366 1131.65 135.855C1133.02 129.344 1135.42 121.891 1138.85 113.496L1161.21 61.0679H1205.67L1162.49 158.728H1129.34Z" fill="#FAFAFA"/>
<path d="M920.544 134.57H963.206C961.835 141.424 961.15 148.448 961.15 155.644V200.876H920.544V134.57ZM920.544 60.8112H961.15V109.384H968.603C969.288 92.4222 974.086 79.8292 982.995 71.6052C991.904 63.2099 1003.9 59.0122 1018.97 59.0122H1035.94V94.7352H1016.66C990.105 94.7352 973.143 105.015 965.776 125.575H920.544V60.8112Z" fill="#FAFAFA"/>
<path d="M788.781 134.57H831.443C830.073 141.424 829.387 148.448 829.387 155.644V200.876H788.781V134.57ZM788.781 60.8112H829.387V109.384H836.84C837.526 92.4222 842.323 79.8292 851.232 71.6052C860.142 63.2099 872.135 59.0122 887.212 59.0122H904.174V94.7352H884.899C858.343 94.7352 841.381 105.015 834.013 125.575H788.781V60.8112Z" fill="#FAFAFA"/>
<path d="M614.919 130.715C614.919 116.323 617.917 103.644 623.914 92.6789C629.911 81.5422 638.392 72.8899 649.357 66.7219C660.494 60.3826 673.601 56.9559 688.678 56.4419V87.2819C677.541 88.1386 668.803 92.5076 662.464 100.389C656.125 108.099 652.955 118.208 652.955 130.715C652.955 143.565 656.125 154.016 662.464 162.069C668.975 169.95 677.713 174.319 688.678 175.176V204.988C673.601 204.474 660.494 201.133 649.357 194.965C638.392 188.797 629.911 180.23 623.914 169.265C617.917 158.3 614.919 145.45 614.919 130.715ZM661.95 114.267H731.083C729.712 106.386 726.114 100.132 720.289 95.5059C714.464 90.7086 707.011 87.9672 697.93 87.2819V56.4419C720.375 57.2986 737.936 64.2376 750.615 77.2589C763.294 90.2802 769.633 107.671 769.633 129.43C769.633 131.657 769.462 135.17 769.119 139.967L661.95 139.71V114.267ZM697.93 175.176C707.353 174.319 715.149 170.978 721.317 165.153C727.485 159.328 731.511 151.532 733.396 141.766L763.465 164.896C757.811 177.061 749.33 186.655 738.022 193.68C726.714 200.533 713.35 204.303 697.93 204.988V175.176Z" fill="#FAFAFA"/>
<path d="M455.233 97.562H503.292C503.978 84.712 508.604 74.8603 517.17 68.007C525.737 60.9823 536.36 57.47 549.038 57.47C563.602 57.47 574.995 61.9247 583.219 70.834C591.443 79.572 595.555 92.0794 595.555 108.356V126.346H554.949V116.323C554.949 107.414 552.636 100.646 548.01 96.02C543.384 91.2227 537.388 88.824 530.02 88.824C519.569 88.824 511.259 93.45 505.091 102.702C498.923 111.954 495.839 125.061 495.839 142.023V200.876H455.233V97.562ZM455.233 0.416016H495.839V88.567H455.233V0.416016ZM554.949 135.084H595.555V200.876H554.949V135.084Z" fill="#FAFAFA"/>
<path d="M360.962 204.731C341.602 204.731 325.411 201.561 312.389 195.222C299.539 188.711 290.03 179.716 283.862 168.237L315.987 146.135C318.386 155.73 323.783 163.097 332.178 168.237C340.574 173.206 350.597 175.69 362.247 175.69C370.985 175.69 378.267 174.491 384.092 172.092C389.918 169.693 393.687 166.524 395.4 162.583H434.207C431.809 175.604 423.756 185.884 410.049 193.423C396.514 200.962 380.152 204.731 360.962 204.731ZM329.094 105.015C330.636 108.099 333.806 110.069 338.603 110.926C343.572 111.611 351.71 112.125 363.018 112.468C375.012 112.811 385.806 113.753 395.4 115.295C405.166 116.837 414.076 120.606 422.128 126.603C430.352 132.6 434.636 141.595 434.978 153.588H395.4C393.687 149.476 390.003 146.906 384.349 145.878C378.695 144.679 369.786 143.822 357.621 143.308C345.285 142.965 334.663 142.109 325.753 140.738C317.015 139.196 308.963 135.684 301.595 130.201C294.399 124.718 290.716 116.323 290.544 105.015H329.094ZM291.315 95.7629C293.714 83.2556 301.253 73.5752 313.931 66.7219C326.781 59.8686 341.773 56.4419 358.906 56.4419C376.554 56.4419 391.802 59.4402 404.652 65.4369C417.674 71.4336 426.84 79.3149 432.151 89.0809L397.97 107.585C395.743 100.732 391.031 95.4202 383.835 91.6509C376.639 87.7102 368.073 85.7399 358.135 85.7399C350.254 85.7399 343.829 86.6822 338.86 88.5669C334.063 90.2802 330.893 92.6789 329.351 95.7629H291.315Z" fill="#FAFAFA"/>
</svg>
